<?xml version="1.0" encoding="utf-8"?>
<!-- Generator: Adobe Illustrator 26.0.2, SVG Export Plug-In . SVG Version: 6.00 Build 0)  -->
<svg version="1.1" id="Layer_1" xmlns="http://www.w3.org/2000/svg" xmlns:xlink="http://www.w3.org/1999/xlink" x="0px" y="0px"
	 viewBox="0 0 448 512" style="enable-background:new 0 0 448 512;" xml:space="preserve">
<style type="text/css">
	.st0{fill:#40E5DB;}
</style>
<path class="st0" d="M0,80c0-8.8,7.2-16,16-16h416c8.8,0,16,7.2,16,16s-7.2,16-16,16H16C7.2,96,0,88.8,0,80z M0,240
	c0-8.8,7.2-16,16-16h416c8.8,0,16,7.2,16,16s-7.2,16-16,16H16C7.2,256,0,248.8,0,240z M432,416H16c-8.8,0-16-7.2-16-16s7.2-16,16-16
	h416c8.8,0,16,7.2,16,16S440.8,416,432,416z"/>
</svg>
